# xmcd
#
# Track frame offsets: 
#        182
#        14525
#        31807
#        46737
#        62232
#        76332
#        92895
#        109965
#        124447
#        142320
#        157980
#
# Disc length: 2272 seconds
#
# Revision: 3
# Processed by: cddbd v1.4PL0 Copyright (c) Steve Scherf et al.
# Submitted via: ExactAudioCopy v0.95a3
#
DISCID=9608de0b
DTITLE=Diamond Rio - IV
DYEAR=1996
DGENRE=Country
TTITLE0=Holdin'
TTITLE1=Walkin' Away
TTITLE2=That's What I Get for Loving You
TTITLE3=She Misses Him on Sunday the Most
TTITLE4=She Sure Did Like to Run
TTITLE5=It's All in Your Head
TTITLE6=Who Am I
TTITLE7=Love Takes You There
TTITLE8=Is That Askin' Too Much
TTITLE9=Just Another Heart
TTITLE10=Big
EXTD=
EXTT0=
EXTT1=
EXTT2=
EXTT3=
EXTT4=
EXTT5=
EXTT6=
EXTT7=
EXTT8=
EXTT9=
EXTT10=
PLAYORDER=
